{"title":"London Has Fallen 2016 HC WEBRip XviD AAC-0LTV","uid":14282251,"size":1382508936,"categoryP":"video","categoryS":"hd___movies","magnet":"?xt=urn:btih:fbe560ebbd53c638f2a68f923ff4250017fcce7b&amp;dn=London+Has+Fallen+2016+HC+WEBRip+XviD+AAC-0LTV+++&amp;tr=udp%3A%2F%2Ftracker.leechers-paradise.org%3A6969&amp;tr=udp%3A%2F%2Fzer0day.ch%3A1337&amp;tr=udp%3A%2F%2Fopen.demonii.com%3A1337&amp;tr=udp%3A%2F%2Ftracker.coppersurfer.tk%3A6969&amp;tr=udp%3A%2F%2Fexodus.desync.com%3A6969","seeders":3,"leechers":4,"uploader":"makintos13","files":1,"time":1460373430,"description":"screens:\r\n \nhttp://imgmak.com/TCd\r\n \nhttp://imgmak.com/TCs\r\n \nhttp://imgmak.com/TC4\r\n \nhttp://imgmak.com/TC8\r\n \nhttp://imgmak.com/TCL\r\n \nhttp://imgmak.com/TCX\r\n\r\n\r\n::::::::::\r\n\r\n\r\nFormat : AVI\r\nFormat/Info : Audio Video Interleave\r\nFormat profile : OpenDML\r\nFile size : 1.29 GiB\r\nDuration : 1h 37mn\r\nOverall bit rate : 1 894 Kbps\r\nWriting application : Lavf57.25.100\r\n\r\nVideo\r\nID : 0\r\nFormat : MPEG-4 Visual\r\nFormat profile : Advanced   \r\nFormat settings, BVOP : 2\r\nFormat settings, QPel : No\r\nFormat settings, GMC : No warppoints\r\nFormat settings, Matrix : Default (H.263)\r\nMuxing mode : Packed bitstream\r\nCodec ID : XVID\r\nCodec ID/Hint : XviD\r\nDuration : 1h 37mn\r\nBit rate : 1 739 Kbps\r\nWidth : 1 616 pixels\r\nHeight : 672 pixels\r\nDisplay aspect ratio : 2.40:1\r\nFrame rate : 60.000 fps\r\nOriginal frame rate : 25.000 fps\r\nColor space : YUV\r\nChroma subsampling : 4:2:0\r\nBit depth : 8 bits\r\nScan type : Progressive\r\nCompression mode : Lossy\r\nBits/(Pixel*Frame) : 0.027\r\nStream size : 1.18 GiB (92%)\r\nWriting library : XviD 63\r\n\r\nAudio\r\nID : 1\r\nFormat : AAC\r\nFormat/Info : Advanced Audio Codec\r\nFormat profile : LC\r\nCodec ID : FF\r\nDuration : 1h 37mn\r\nBit rate : 128 Kbps\r\nChannel(s) : 2 channels\r\nChannel positions : Front: L R\r\nSampling rate : 48.0 KHz\r\nCompression mode : Lossy\r\nStream size : 90.6 MiB (7%)\r\nAlignment : Split accross interleaves\r\nInterleave, duration : 21 ms (1.28 video frame)","torrent":{"xt":"urn:btih:fbe560ebbd53c638f2a68f923ff4250017fcce7b","amp;dn":"London+Has+Fallen+2016+HC+WEBRip+XviD+AAC-0LTV+++","amp;tr":["udp%3A%2F%2Ftracker.leechers-paradise.org%3A6969","udp%3A%2F%2Fzer0day.ch%3A1337","udp%3A%2F%2Fopen.demonii.com%3A1337","udp%3A%2F%2Ftracker.coppersurfer.tk%3A6969","udp%3A%2F%2Fexodus.desync.com%3A6969"],"infoHash":"fbe560ebbd53c638f2a68f923ff4250017fcce7b","infoHashBuffer":{"type":"Buffer","data":[251,229,96,235,189,83,198,56,242,166,143,146,63,244,37,0,23,252,206,123]},"announce":[],"urlList":[]}}